<svg width="548" height="128" viewBox="0 0 548 128" fill="none" xmlns="http://www.w3.org/2000/svg">
<mask id="path-1-inside-1_438_79" fill="white">
<rect x="46.3484" width="454.543" height="127.442" rx="5"/>
</mask>
<rect x="46.3484" width="454.543" height="127.442" rx="5" stroke="#3E3D42" stroke-width="16" mask="url(#path-1-inside-1_438_79)"/>
<path d="M141.823 35.13C141.823 36.4367 141.508 37.6617 140.878 38.805C140.271 39.9483 139.303 40.87 137.973 41.57C136.666 42.27 135.009 42.62 133.003 42.62H128.908V52H124.008V27.57H133.003C134.893 27.57 136.503 27.8967 137.833 28.55C139.163 29.2033 140.154 30.1017 140.808 31.245C141.484 32.3883 141.823 33.6833 141.823 35.13ZM132.793 38.665C134.146 38.665 135.149 38.3617 135.803 37.755C136.456 37.125 136.783 36.25 136.783 35.13C136.783 32.75 135.453 31.56 132.793 31.56H128.908V38.665H132.793ZM157.902 52L152.512 42.48H150.202V52H145.302V27.57H154.472C156.362 27.57 157.972 27.9083 159.302 28.585C160.632 29.2383 161.623 30.1367 162.277 31.28C162.953 32.4 163.292 33.66 163.292 35.06C163.292 36.67 162.825 38.1283 161.892 39.435C160.958 40.7183 159.57 41.605 157.727 42.095L163.572 52H157.902ZM150.202 38.805H154.297C155.627 38.805 156.618 38.49 157.272 37.86C157.925 37.2067 158.252 36.3083 158.252 35.165C158.252 34.045 157.925 33.1817 157.272 32.575C156.618 31.945 155.627 31.63 154.297 31.63H150.202V38.805ZM172.624 31.525V37.65H180.849V41.535H172.624V48.01H181.899V52H167.724V27.535H181.899V31.525H172.624ZM194.787 52.245C193.083 52.245 191.543 51.9533 190.167 51.37C188.813 50.7867 187.74 49.9467 186.947 48.85C186.153 47.7533 185.745 46.4583 185.722 44.965H190.972C191.042 45.9683 191.392 46.7617 192.022 47.345C192.675 47.9283 193.562 48.22 194.682 48.22C195.825 48.22 196.723 47.9517 197.377 47.415C198.03 46.855 198.357 46.1317 198.357 45.245C198.357 44.5217 198.135 43.9267 197.692 43.46C197.248 42.9933 196.688 42.6317 196.012 42.375C195.358 42.095 194.448 41.7917 193.282 41.465C191.695 40.9983 190.4 40.5433 189.397 40.1C188.417 39.6333 187.565 38.945 186.842 38.035C186.142 37.1017 185.792 35.865 185.792 34.325C185.792 32.8783 186.153 31.6183 186.877 30.545C187.6 29.4717 188.615 28.655 189.922 28.095C191.228 27.5117 192.722 27.22 194.402 27.22C196.922 27.22 198.963 27.8383 200.527 29.075C202.113 30.2883 202.988 31.9917 203.152 34.185H197.762C197.715 33.345 197.353 32.6567 196.677 32.12C196.023 31.56 195.148 31.28 194.052 31.28C193.095 31.28 192.325 31.525 191.742 32.015C191.182 32.505 190.902 33.2167 190.902 34.15C190.902 34.8033 191.112 35.3517 191.532 35.795C191.975 36.215 192.512 36.565 193.142 36.845C193.795 37.1017 194.705 37.405 195.872 37.755C197.458 38.2217 198.753 38.6883 199.757 39.155C200.76 39.6217 201.623 40.3217 202.347 41.255C203.07 42.1883 203.432 43.4133 203.432 44.93C203.432 46.2367 203.093 47.45 202.417 48.57C201.74 49.69 200.748 50.5883 199.442 51.265C198.135 51.9183 196.583 52.245 194.787 52.245ZM216.115 52.245C214.411 52.245 212.871 51.9533 211.495 51.37C210.141 50.7867 209.068 49.9467 208.275 48.85C207.481 47.7533 207.073 46.4583 207.05 44.965H212.3C212.37 45.9683 212.72 46.7617 213.35 47.345C214.003 47.9283 214.89 48.22 216.01 48.22C217.153 48.22 218.051 47.9517 218.705 47.415C219.358 46.855 219.685 46.1317 219.685 45.245C219.685 44.5217 219.463 43.9267 219.02 43.46C218.576 42.9933 218.016 42.6317 217.34 42.375C216.686 42.095 215.776 41.7917 214.61 41.465C213.023 40.9983 211.728 40.5433 210.725 40.1C209.745 39.6333 208.893 38.945 208.17 38.035C207.47 37.1017 207.12 35.865 207.12 34.325C207.12 32.8783 207.481 31.6183 208.205 30.545C208.928 29.4717 209.943 28.655 211.25 28.095C212.556 27.5117 214.05 27.22 215.73 27.22C218.25 27.22 220.291 27.8383 221.855 29.075C223.441 30.2883 224.316 31.9917 224.48 34.185H219.09C219.043 33.345 218.681 32.6567 218.005 32.12C217.351 31.56 216.476 31.28 215.38 31.28C214.423 31.28 213.653 31.525 213.07 32.015C212.51 32.505 212.23 33.2167 212.23 34.15C212.23 34.8033 212.44 35.3517 212.86 35.795C213.303 36.215 213.84 36.565 214.47 36.845C215.123 37.1017 216.033 37.405 217.2 37.755C218.786 38.2217 220.081 38.6883 221.085 39.155C222.088 39.6217 222.951 40.3217 223.675 41.255C224.398 42.1883 224.76 43.4133 224.76 44.93C224.76 46.2367 224.421 47.45 223.745 48.57C223.068 49.69 222.076 50.5883 220.77 51.265C219.463 51.9183 217.911 52.245 216.115 52.245ZM245.783 52.245C244.079 52.245 242.539 51.9533 241.163 51.37C239.809 50.7867 238.736 49.9467 237.943 48.85C237.149 47.7533 236.741 46.4583 236.718 44.965H241.968C242.038 45.9683 242.388 46.7617 243.018 47.345C243.671 47.9283 244.558 48.22 245.678 48.22C246.821 48.22 247.719 47.9517 248.373 47.415C249.026 46.855 249.353 46.1317 249.353 45.245C249.353 44.5217 249.131 43.9267 248.688 43.46C248.244 42.9933 247.684 42.6317 247.008 42.375C246.354 42.095 245.444 41.7917 244.278 41.465C242.691 40.9983 241.396 40.5433 240.393 40.1C239.413 39.6333 238.561 38.945 237.838 38.035C237.138 37.1017 236.788 35.865 236.788 34.325C236.788 32.8783 237.149 31.6183 237.873 30.545C238.596 29.4717 239.611 28.655 240.918 28.095C242.224 27.5117 243.718 27.22 245.398 27.22C247.918 27.22 249.959 27.8383 251.523 29.075C253.109 30.2883 253.984 31.9917 254.148 34.185H248.758C248.711 33.345 248.349 32.6567 247.673 32.12C247.019 31.56 246.144 31.28 245.048 31.28C244.091 31.28 243.321 31.525 242.738 32.015C242.178 32.505 241.898 33.2167 241.898 34.15C241.898 34.8033 242.108 35.3517 242.528 35.795C242.971 36.215 243.508 36.565 244.138 36.845C244.791 37.1017 245.701 37.405 246.868 37.755C248.454 38.2217 249.749 38.6883 250.753 39.155C251.756 39.6217 252.619 40.3217 253.343 41.255C254.066 42.1883 254.428 43.4133 254.428 44.93C254.428 46.2367 254.089 47.45 253.413 48.57C252.736 49.69 251.744 50.5883 250.438 51.265C249.131 51.9183 247.579 52.245 245.783 52.245ZM276.491 35.13C276.491 36.4367 276.176 37.6617 275.546 38.805C274.939 39.9483 273.971 40.87 272.641 41.57C271.334 42.27 269.677 42.62 267.671 42.62H263.576V52H258.676V27.57H267.671C269.561 27.57 271.171 27.8967 272.501 28.55C273.831 29.2033 274.822 30.1017 275.476 31.245C276.152 32.3883 276.491 33.6833 276.491 35.13ZM267.461 38.665C268.814 38.665 269.817 38.3617 270.471 37.755C271.124 37.125 271.451 36.25 271.451 35.13C271.451 32.75 270.121 31.56 267.461 31.56H263.576V38.665H267.461ZM294.95 47.345H285.22L283.61 52H278.465L287.25 27.535H292.955L301.74 52H296.56L294.95 47.345ZM293.62 43.425L290.085 33.205L286.55 43.425H293.62ZM303.833 39.75C303.833 37.3467 304.37 35.2 305.443 33.31C306.54 31.3967 308.022 29.915 309.888 28.865C311.778 27.7917 313.89 27.255 316.223 27.255C318.953 27.255 321.345 27.955 323.398 29.355C325.452 30.755 326.887 32.6917 327.703 35.165H322.068C321.508 33.9983 320.715 33.1233 319.688 32.54C318.685 31.9567 317.518 31.665 316.188 31.665C314.765 31.665 313.493 32.0033 312.373 32.68C311.277 33.3333 310.413 34.2667 309.783 35.48C309.177 36.6933 308.873 38.1167 308.873 39.75C308.873 41.36 309.177 42.7833 309.783 44.02C310.413 45.2333 311.277 46.1783 312.373 46.855C313.493 47.5083 314.765 47.835 316.188 47.835C317.518 47.835 318.685 47.5433 319.688 46.96C320.715 46.3533 321.508 45.4667 322.068 44.3H327.703C326.887 46.7967 325.452 48.745 323.398 50.145C321.368 51.5217 318.977 52.21 316.223 52.21C313.89 52.21 311.778 51.685 309.888 50.635C308.022 49.5617 306.54 48.08 305.443 46.19C304.37 44.3 303.833 42.1533 303.833 39.75ZM336.789 31.525V37.65H345.014V41.535H336.789V48.01H346.064V52H331.889V27.535H346.064V31.525H336.789ZM364.377 39.47C365.753 39.7267 366.885 40.415 367.772 41.535C368.658 42.655 369.102 43.9383 369.102 45.385C369.102 46.6917 368.775 47.8467 368.122 48.85C367.492 49.83 366.57 50.6 365.357 51.16C364.143 51.72 362.708 52 361.052 52H350.517V27.57H360.597C362.253 27.57 363.677 27.8383 364.867 28.375C366.08 28.9117 366.99 29.6583 367.597 30.615C368.227 31.5717 368.542 32.6567 368.542 33.87C368.542 35.2933 368.157 36.4833 367.387 37.44C366.64 38.3967 365.637 39.0733 364.377 39.47ZM355.417 37.65H359.897C361.063 37.65 361.962 37.3933 362.592 36.88C363.222 36.3433 363.537 35.585 363.537 34.605C363.537 33.625 363.222 32.8667 362.592 32.33C361.962 31.7933 361.063 31.525 359.897 31.525H355.417V37.65ZM360.352 48.01C361.542 48.01 362.463 47.73 363.117 47.17C363.793 46.61 364.132 45.8167 364.132 44.79C364.132 43.74 363.782 42.9233 363.082 42.34C362.382 41.7333 361.437 41.43 360.247 41.43H355.417V48.01H360.352ZM387.987 47.345H378.257L376.647 52H371.502L380.287 27.535H385.992L394.777 52H389.597L387.987 47.345ZM386.657 43.425L383.122 33.205L379.587 43.425H386.657ZM410.661 52L405.271 42.48H402.961V52H398.061V27.57H407.231C409.121 27.57 410.731 27.9083 412.061 28.585C413.391 29.2383 414.382 30.1367 415.036 31.28C415.712 32.4 416.051 33.66 416.051 35.06C416.051 36.67 415.584 38.1283 414.651 39.435C413.717 40.7183 412.329 41.605 410.486 42.095L416.331 52H410.661ZM402.961 38.805H407.056C408.386 38.805 409.377 38.49 410.031 37.86C410.684 37.2067 411.011 36.3083 411.011 35.165C411.011 34.045 410.684 33.1817 410.031 32.575C409.377 31.945 408.386 31.63 407.056 31.63H402.961V38.805ZM210.428 80.57V84.525H203.918V105H199.018V84.525H192.508V80.57H210.428ZM225.343 105.245C223.056 105.245 220.956 104.708 219.043 103.635C217.13 102.562 215.613 101.08 214.493 99.19C213.373 97.2767 212.813 95.1183 212.813 92.715C212.813 90.335 213.373 88.2 214.493 86.31C215.613 84.3967 217.13 82.9033 219.043 81.83C220.956 80.7567 223.056 80.22 225.343 80.22C227.653 80.22 229.753 80.7567 231.643 81.83C233.556 82.9033 235.061 84.3967 236.158 86.31C237.278 88.2 237.838 90.335 237.838 92.715C237.838 95.1183 237.278 97.2767 236.158 99.19C235.061 101.08 233.556 102.562 231.643 103.635C229.73 104.708 227.63 105.245 225.343 105.245ZM225.343 100.87C226.813 100.87 228.108 100.543 229.228 99.89C230.348 99.2133 231.223 98.2567 231.853 97.02C232.483 95.7833 232.798 94.3483 232.798 92.715C232.798 91.0817 232.483 89.6583 231.853 88.445C231.223 87.2083 230.348 86.2633 229.228 85.61C228.108 84.9567 226.813 84.63 225.343 84.63C223.873 84.63 222.566 84.9567 221.423 85.61C220.303 86.2633 219.428 87.2083 218.798 88.445C218.168 89.6583 217.853 91.0817 217.853 92.715C217.853 94.3483 218.168 95.7833 218.798 97.02C219.428 98.2567 220.303 99.2133 221.423 99.89C222.566 100.543 223.873 100.87 225.343 100.87ZM258.258 105.245C256.555 105.245 255.015 104.953 253.638 104.37C252.285 103.787 251.212 102.947 250.418 101.85C249.625 100.753 249.217 99.4583 249.193 97.965H254.443C254.513 98.9683 254.863 99.7617 255.493 100.345C256.147 100.928 257.033 101.22 258.153 101.22C259.297 101.22 260.195 100.952 260.848 100.415C261.502 99.855 261.828 99.1317 261.828 98.245C261.828 97.5217 261.607 96.9267 261.163 96.46C260.72 95.9933 260.16 95.6317 259.483 95.375C258.83 95.095 257.92 94.7917 256.753 94.465C255.167 93.9983 253.872 93.5433 252.868 93.1C251.888 92.6333 251.037 91.945 250.313 91.035C249.613 90.1017 249.263 88.865 249.263 87.325C249.263 85.8783 249.625 84.6183 250.348 83.545C251.072 82.4717 252.087 81.655 253.393 81.095C254.7 80.5117 256.193 80.22 257.873 80.22C260.393 80.22 262.435 80.8383 263.998 82.075C265.585 83.2883 266.46 84.9917 266.623 87.185H261.233C261.187 86.345 260.825 85.6567 260.148 85.12C259.495 84.56 258.62 84.28 257.523 84.28C256.567 84.28 255.797 84.525 255.213 85.015C254.653 85.505 254.373 86.2167 254.373 87.15C254.373 87.8033 254.583 88.3517 255.003 88.795C255.447 89.215 255.983 89.565 256.613 89.845C257.267 90.1017 258.177 90.405 259.343 90.755C260.93 91.2217 262.225 91.6883 263.228 92.155C264.232 92.6217 265.095 93.3217 265.818 94.255C266.542 95.1883 266.903 96.4133 266.903 97.93C266.903 99.2367 266.565 100.45 265.888 101.57C265.212 102.69 264.22 103.588 262.913 104.265C261.607 104.918 260.055 105.245 258.258 105.245ZM287.776 80.57V84.525H281.266V105H276.366V84.525H269.856V80.57H287.776ZM306.332 100.345H296.602L294.992 105H289.847L298.632 80.535H304.337L313.122 105H307.942L306.332 100.345ZM305.002 96.425L301.467 86.205L297.932 96.425H305.002ZM329.005 105L323.615 95.48H321.305V105H316.405V80.57H325.575C327.465 80.57 329.075 80.9083 330.405 81.585C331.735 82.2383 332.727 83.1367 333.38 84.28C334.057 85.4 334.395 86.66 334.395 88.06C334.395 89.67 333.929 91.1283 332.995 92.435C332.062 93.7183 330.674 94.605 328.83 95.095L334.675 105H329.005ZM321.305 91.805H325.4C326.73 91.805 327.722 91.49 328.375 90.86C329.029 90.2067 329.355 89.3083 329.355 88.165C329.355 87.045 329.029 86.1817 328.375 85.575C327.722 84.945 326.73 84.63 325.4 84.63H321.305V91.805ZM355.452 80.57V84.525H348.942V105H344.042V84.525H337.532V80.57H355.452Z" fill="#3E3D42"/>
</svg>
