<svg width="96" height="39" viewBox="0 0 96 39" fill="none" xmlns="http://www.w3.org/2000/svg">
<path d="M0 0H96V39H0V0Z" fill="#671B16"/>
<path d="M16.952 27.22C16.0573 27.22 15.236 27.11 14.488 26.89C13.74 26.6553 13.0653 26.3107 12.464 25.856C11.8627 25.4013 11.3273 24.8513 10.858 24.206L12.728 22.094C13.4467 23.0913 14.1507 23.7807 14.84 24.162C15.5293 24.5433 16.3067 24.734 17.172 24.734C17.6707 24.734 18.1253 24.6607 18.536 24.514C18.9467 24.3527 19.2693 24.14 19.504 23.876C19.7387 23.5973 19.856 23.282 19.856 22.93C19.856 22.6807 19.8047 22.4533 19.702 22.248C19.614 22.028 19.4747 21.8373 19.284 21.676C19.0933 21.5 18.8587 21.3387 18.58 21.192C18.3013 21.0453 17.986 20.9207 17.634 20.818C17.282 20.7153 16.8933 20.62 16.468 20.532C15.6613 20.3707 14.9573 20.158 14.356 19.894C13.7547 19.6153 13.2487 19.278 12.838 18.882C12.4273 18.4713 12.1267 18.0167 11.936 17.518C11.7453 17.0047 11.65 16.4253 11.65 15.78C11.65 15.1347 11.7893 14.5407 12.068 13.998C12.3613 13.4553 12.7573 12.986 13.256 12.59C13.7547 12.194 14.334 11.886 14.994 11.666C15.654 11.446 16.3653 11.336 17.128 11.336C17.9933 11.336 18.7633 11.4387 19.438 11.644C20.1273 11.8493 20.7287 12.1573 21.242 12.568C21.77 12.964 22.2027 13.448 22.54 14.02L20.648 15.89C20.3547 15.4353 20.0247 15.0613 19.658 14.768C19.2913 14.46 18.8953 14.2327 18.47 14.086C18.0447 13.9247 17.5973 13.844 17.128 13.844C16.6 13.844 16.138 13.9173 15.742 14.064C15.3607 14.2107 15.06 14.4233 14.84 14.702C14.62 14.966 14.51 15.2887 14.51 15.67C14.51 15.9633 14.576 16.2273 14.708 16.462C14.84 16.682 15.0233 16.88 15.258 17.056C15.5073 17.232 15.8227 17.386 16.204 17.518C16.5853 17.65 17.018 17.7673 17.502 17.87C18.3087 18.0313 19.0347 18.2513 19.68 18.53C20.3253 18.794 20.8753 19.1167 21.33 19.498C21.7847 19.8647 22.1293 20.29 22.364 20.774C22.5987 21.2433 22.716 21.7713 22.716 22.358C22.716 23.37 22.474 24.2427 21.99 24.976C21.5207 25.6947 20.8533 26.252 19.988 26.648C19.1227 27.0293 18.1107 27.22 16.952 27.22ZM35.739 27V11.6H38.599V27H35.739ZM25.861 27V11.6H28.721V27H25.861ZM27.049 20.664V17.98H37.125V20.664H27.049ZM41.0317 27L47.0377 11.6H49.7217L55.6837 27H52.7137L49.4137 18.244C49.3404 18.068 49.2377 17.7893 49.1057 17.408C48.9884 17.0267 48.8564 16.616 48.7097 16.176C48.563 15.7213 48.431 15.3033 48.3137 14.922C48.1964 14.526 48.1084 14.24 48.0497 14.064L48.5997 14.042C48.5117 14.3353 48.409 14.6653 48.2917 15.032C48.1744 15.3987 48.0497 15.78 47.9177 16.176C47.7857 16.572 47.6537 16.9533 47.5217 17.32C47.4044 17.6867 47.2944 18.0167 47.1917 18.31L43.8917 27H41.0317ZM43.7597 23.48L44.7497 20.994H51.7677L52.8237 23.48H43.7597ZM58.109 27V11.6H64.797C65.721 11.6 66.5643 11.82 67.327 12.26C68.0897 12.6853 68.691 13.272 69.131 14.02C69.5857 14.7533 69.813 15.582 69.813 16.506C69.813 17.386 69.5857 18.2 69.131 18.948C68.691 19.6813 68.0897 20.268 67.327 20.708C66.579 21.1333 65.7357 21.346 64.797 21.346H60.903V27H58.109ZM67.041 27L63.125 20.048L66.073 19.498L70.429 27.022L67.041 27ZM60.903 18.86H64.819C65.2443 18.86 65.611 18.7647 65.919 18.574C66.2417 18.3687 66.491 18.09 66.667 17.738C66.843 17.386 66.931 16.9973 66.931 16.572C66.931 16.088 66.821 15.67 66.601 15.318C66.381 14.966 66.073 14.6873 65.677 14.482C65.281 14.2767 64.8263 14.174 64.313 14.174H60.903V18.86ZM73.4489 27V11.6H83.5249V14.196H76.2649V24.404H83.6129V27H73.4489ZM74.7689 20.4V17.848H82.4029V20.4H74.7689Z" fill="#FFF9E4"/>
</svg>
